Coordinates
version=1
nRows=60
nColumns=12
inDegrees=yes

Units are S.I. units (second, meters, Newtons, ...)
Angles are in degrees

endheader
time	SC_y	SC_z	SC_x	AC_y	AC_z	AC_x	GH_y	GH_z	GH_yy	EL_x	PS_y
       0.0              -32.68          5.934          30.98          48.92         -5.433           2.41          69.35          72.26          133.1          135.3          131.0
   0.02194              -32.69          5.934          30.97          48.92         -5.435          2.412          69.35          72.25          133.0          135.3          131.0
   0.04389              -32.69          5.934          30.97          48.92         -5.437          2.414          69.36          72.25          133.0          135.3          131.0
   0.06583              -32.69          5.934          30.97          48.92         -5.439          2.416          69.36          72.25          132.9          135.3          131.0
   0.08777              -32.69          5.934          30.97          48.92         -5.441          2.418          69.36          72.25          132.9          135.3          131.0
    0.1097              -32.69          5.934          30.97          48.92         -5.443           2.42          69.37          72.24          132.8          135.3          131.0
    0.1317               -32.7          5.934          30.96          48.92         -5.445          2.423          69.37          72.24          132.8          135.3          131.0
    0.1536               -32.7          5.934          30.96          48.92         -5.448          2.426          69.37          72.23          132.7          135.3          130.9
    0.1755               -32.7          5.934          30.96          48.92         -5.451          2.428          69.38          72.23          132.6          135.3          130.9
    0.1975               -32.7          5.934          30.95          48.92         -5.454          2.431          69.38          72.22          132.6          135.2          130.9
    0.2194              -32.71          5.934          30.95          48.92         -5.457          2.435          69.39          72.22          132.5          135.2          130.9
    0.2414              -32.71          5.935          30.95          48.92          -5.46          2.438          69.39          72.21          132.4          135.2          130.9
    0.2633              -32.71          5.935          30.94          48.92         -5.464          2.442           69.4          72.21          132.3          135.2          130.9
    0.2853              -32.72          5.935          30.94          48.92         -5.468          2.446           69.4           72.2          132.2          135.2          130.9
    0.3072              -32.72          5.935          30.94          48.92         -5.472           2.45          69.41           72.2          132.1          135.2          130.8
    0.3292              -32.73          5.935          30.93          48.91         -5.476          2.455          69.41          72.19          132.0          135.1          130.8
    0.3511              -32.73          5.935          30.93          48.91         -5.481           2.46          69.42          72.18          131.9          135.1          130.8
     0.373              -32.74          5.935          30.92          48.91         -5.487          2.466          69.43          72.17          131.8          135.1          130.8
     0.395              -32.74          5.936          30.91          48.91         -5.493          2.472          69.44          72.16          131.6          135.1          130.8
    0.4169              -32.75          5.936          30.91          48.91         -5.499          2.479          69.45          72.15          131.5          135.0          130.7
    0.4389              -32.76          5.936           30.9          48.91         -5.506          2.486          69.46          72.14          131.3          135.0          130.7
    0.4608              -32.77          5.936          30.89          48.91         -5.514          2.495          69.47          72.13          131.1          134.9          130.7
    0.4828              -32.77          5.937          30.88          48.91         -5.523          2.504          69.48          72.11          130.9          134.9          130.6
    0.5047              -32.78          5.937          30.87          48.91         -5.532          2.514          69.49           72.1          130.6          134.9          130.6
    0.5266               -32.8          5.937          30.86          48.91         -5.543          2.525          69.51          72.08          130.4          134.8          130.6
    0.5486              -32.81          5.938          30.85           48.9         -5.555          2.537          69.53          72.06          130.1          134.8          130.5
    0.5705              -32.82          5.938          30.83           48.9         -5.568          2.551          69.55          72.04          129.8          134.7          130.5
    0.5925              -32.84          5.939          30.82           48.9         -5.583          2.567          69.57          72.02          129.4          134.6          130.4
    0.6144              -32.85          5.939           30.8           48.9           -5.6          2.585          69.59          71.99          129.0          134.5          130.3
    0.6364              -32.87           5.94          30.78          48.89         -5.619          2.605          69.62          71.96          128.5          134.4          130.2
    0.6583              -32.89           5.94          30.76          48.89         -5.641          2.628          69.65          71.92          128.0          134.3          130.2
    0.6802              -32.92          5.941          30.73          48.89         -5.666          2.654          69.69          71.88          127.4          134.2          130.1
    0.7022              -32.95          5.942           30.7          48.88         -5.695          2.685          69.73          71.83          126.6          134.1          129.9
    0.7241              -32.98          5.943          30.66          48.88         -5.728           2.72          69.78          71.78          125.8          133.9          129.8
    0.7461              -33.02          5.945          30.62          48.87         -5.768          2.761          69.83          71.72          124.9          133.7          129.6
     0.768              -33.07          5.946          30.57          48.87         -5.814           2.81           69.9          71.64          123.7          133.5          129.5
      0.79              -33.13          5.948          30.51          48.86          -5.87          2.868          69.98          71.55          122.4          133.2          129.2
    0.8119              -33.19           5.95          30.44          48.85         -5.936          2.937          70.07          71.44          120.7          132.9          129.0
    0.8339              -33.28          5.953          30.36          48.84         -6.016          3.021          70.19          71.31          118.8          132.5          128.6
    0.8558              -33.38          5.956          30.26          48.82         -6.114          3.124          70.33          71.16          116.4          132.0          128.2
    0.8777               -33.5           5.96          30.13          48.81         -6.234          3.251           70.5          70.96          113.4          131.4          127.8
    0.8997              -33.65          5.965          29.97          48.78         -6.385          3.409          70.72          70.72          109.7          130.7          127.1
    0.9216              -33.84          5.971          29.77          48.76         -6.574          3.608          70.99          70.41          105.0          129.8          126.4
    0.9436              -34.09          5.979          29.51          48.72         -6.815           3.86          71.34          70.02          99.12          128.6          125.4
    0.9655               -34.4          5.989          29.19          48.68         -7.124          4.184          71.78          69.52          91.54          127.1          124.2
    0.9875              -34.81          6.002          28.77          48.62          -7.52            4.6          72.35          68.88          81.81          125.2          122.6
     1.009              -35.32          6.018          28.23          48.55         -8.026           5.13          73.08          68.06          69.39          122.7          120.5
     1.031              -35.97          6.039          27.56          48.45         -8.661          5.798          73.99          67.03          53.77          119.6          117.9
     1.053              -36.75          6.065          26.74          48.34         -9.436          6.611          75.11          65.77          34.73          115.9          114.8
     1.075              -37.67          6.094          25.79          48.21         -10.33          7.553           76.4          64.31          12.66          111.5          111.2
     1.097              -38.66          6.126          24.76          48.07         -11.31          8.574          77.79          62.74         -11.23          106.8          107.2
     1.119              -39.64          6.158          23.73          47.93         -12.28          9.594          79.19          61.16         -35.12          102.1          103.3
     1.141              -40.56          6.187          22.78           47.8         -13.18          10.54          80.48          59.71         -57.19          97.68          99.66
     1.163              -41.34          6.212          21.96          47.69         -13.95          11.35           81.6          58.45         -76.22          93.92          96.52
     1.185              -41.99          6.233          21.28           47.6         -14.59          12.02          82.51          57.42         -91.85          90.82          93.95
     1.207              -42.51           6.25          20.75          47.52         -15.09          12.55          83.24           56.6         -104.3          88.37           91.9
     1.229              -42.91          6.263          20.33          47.47         -15.49          12.96          83.81          55.96         -114.0          86.44           90.3
     1.251              -43.22          6.273           20.0          47.42          -15.8          13.29          84.25          55.46         -121.6          84.94          89.05
     1.273              -43.47          6.281          19.75          47.39         -16.04          13.54           84.6          55.07         -127.5          83.77          88.08
     1.295              -43.66          6.287          19.55          47.36         -16.23          13.74          84.87          54.76         -132.2          82.85          87.31
